HIERARCHY
ROOT hip
{
  OFFSET 0 0 0
  CHANNELS 6 Xposition Yposition Zposition Zrotation Yrotation Xrotation
  JOINT abdomen
  {
    OFFSET 0 20.6881 -0.73152
    CHANNELS 3 Zrotation Xrotation Yrotation
    JOINT chest
    {
      OFFSET 0 11.7043 -0.48768
      CHANNELS 3 Zrotation Xrotation Yrotation
      JOINT neck
      {
        OFFSET 0 22.1894 -2.19456
        CHANNELS 3 Zrotation Xrotation Yrotation
        JOINT head
        {
          OFFSET -0.24384 7.07133 1.2192
          CHANNELS 3 Zrotation Xrotation Yrotation
          JOINT leftEye
          {
            OFFSET 4.14528 8.04674 8.04672
            CHANNELS 3 Zrotation Xrotation Yrotation
            End Site
            {
              OFFSET 1 0 0
            }
          }
          JOINT rightEye
          {
            OFFSET -3.6576 8.04674 8.04672
            CHANNELS 3 Zrotation Xrotation Yrotation
            End Site
            {
              OFFSET 1 0 0
            }
          }
        }
      }
      JOINT rCollar
      {
        OFFSET -2.68224 19.2634 -4.8768
        CHANNELS 3 Zrotation Xrotation Yrotation
        JOINT rShldr
        {
          OFFSET -8.77824 -1.95073 1.46304
          CHANNELS 3 Zrotation Xrotation Yrotation
          JOINT rForeArm
          {
            OFFSET -28.1742 -1.7115 0.48768
            CHANNELS 3 Zrotation Xrotation Yrotation
            JOINT rHand
            {
              OFFSET -22.5879 0.773209 7.07136
              CHANNELS 3 Zrotation Xrotation Yrotation
              JOINT rThumb1
              {
                OFFSET -1.2192 -0.487915 3.41376
                CHANNELS 3 Zrotation Xrotation Yrotation
                JOINT rThumb2
                {
                  OFFSET -3.37035 -0.52449 3.41376
                  CHANNELS 3 Zrotation Xrotation Yrotation
                  End Site
                  {
                    OFFSET -1.78271 -1.18214 1.43049
                  }
                }
              }
              JOINT rIndex1
              {
                OFFSET -7.75947 0.938293 5.60832
                CHANNELS 3 Zrotation Xrotation Yrotation
                JOINT rIndex2
                {
                  OFFSET -2.54057 -0.884171 1.56538
                  CHANNELS 3 Zrotation Xrotation Yrotation
                  End Site
                  {
                    OFFSET -1.62519 -0.234802 1.16502
                  }
                }
              }
              JOINT rMid1
              {
                OFFSET -8.24714 1.18213 3.41376
                CHANNELS 3 Zrotation Xrotation Yrotation
                JOINT rMid2
                {
                  OFFSET -3.10165 -0.590103 1.0647
                  CHANNELS 3 Zrotation Xrotation Yrotation
                  End Site
                  {
                    OFFSET -2.48547 -0.328903 0.83742
                  }
                }
              }
              JOINT rRing1
              {
                OFFSET -8.82822 0.546677 1.51678
                CHANNELS 3 Zrotation Xrotation Yrotation
                JOINT rRing2
                {
                  OFFSET -2.60934 -0.819778 -0.0198488
                  CHANNELS 3 Zrotation Xrotation Yrotation
                  End Site
                  {
                    OFFSET -2.33842 -0.294052 0.168128
                  }
                }
              }
              JOINT rPinky1
              {
                OFFSET -8.27202 -0.0477905 -0.4584
                CHANNELS 3 Zrotation Xrotation Yrotation
                JOINT rPinky2
                {
                  OFFSET -1.82734 -0.647385 -0.700984
                  CHANNELS 3 Zrotation Xrotation Yrotation
                  End Site
                  {
                    OFFSET -1.69225 -0.51767 -0.607171
                  }
                }
              }
            }
          }
        }
      }
      JOINT lCollar
      {
        OFFSET 2.68224 19.2634 -4.8768
        CHANNELS 3 Zrotation Xrotation Yrotation
        JOINT lShldr
        {
          OFFSET 8.77824 -1.95073 1.46304
          CHANNELS 3 Zrotation Xrotation Yrotation
          JOINT lForeArm
          {
            OFFSET 28.1742 -1.7115 0.48768
            CHANNELS 3 Zrotation Xrotation Yrotation
            JOINT lHand
            {
              OFFSET 22.5879 0.773209 7.07136
              CHANNELS 3 Zrotation Xrotation Yrotation
              JOINT lThumb1
              {
                OFFSET 1.2192 -0.487915 3.41376
                CHANNELS 3 Zrotation Xrotation Yrotation
                JOINT lThumb2
                {
                  OFFSET 3.37035 -0.52449 3.41376
                  CHANNELS 3 Zrotation Xrotation Yrotation
                  End Site
                  {
                    OFFSET 1.78271 -1.18214 1.43049
                  }
                }
              }
              JOINT lIndex1
              {
                OFFSET 7.75947 0.938293 5.60832
                CHANNELS 3 Zrotation Xrotation Yrotation
                JOINT lIndex2
                {
                  OFFSET 2.54057 -0.884171 1.56538
                  CHANNELS 3 Zrotation Xrotation Yrotation
                  End Site
                  {
                    OFFSET 1.62519 -0.234802 1.16502
                  }
                }
              }
              JOINT lMid1
              {
                OFFSET 8.24714 1.18213 3.41376
                CHANNELS 3 Zrotation Xrotation Yrotation
                JOINT lMid2
                {
                  OFFSET 3.10165 -0.590103 1.0647
                  CHANNELS 3 Zrotation Xrotation Yrotation
                  End Site
                  {
                    OFFSET 2.48547 -0.328903 0.83742
                  }
                }
              }
              JOINT lRing1
              {
                OFFSET 8.82822 0.546677 1.51678
                CHANNELS 3 Zrotation Xrotation Yrotation
                JOINT lRing2
                {
                  OFFSET 2.60934 -0.819778 -0.0198488
                  CHANNELS 3 Zrotation Xrotation Yrotation
                  End Site
                  {
                    OFFSET 2.33842 -0.294052 0.168128
                  }
                }
              }
              JOINT lPinky1
              {
                OFFSET 8.27202 -0.0477905 -0.4584
                CHANNELS 3 Zrotation Xrotation Yrotation
                JOINT lPinky2
                {
                  OFFSET 1.82734 -0.647385 -0.700984
                  CHANNELS 3 Zrotation Xrotation Yrotation
                  End Site
                  {
                    OFFSET 1.69225 -0.51767 -0.607171
                  }
                }
              }
            }
          }
        }
      }
    }
  }
  JOINT rButtock
  {
    OFFSET -8.77824 4.35084 1.2192
    CHANNELS 3 Zrotation Xrotation Yrotation
    JOINT rThigh
    {
      OFFSET 0 -1.70687 -2.19456
      CHANNELS 3 Zrotation Xrotation Yrotation
      JOINT rShin
      {
        OFFSET 0 -36.8199 0.73152
        CHANNELS 3 Zrotation Xrotation Yrotation
        JOINT rFoot
        {
          OFFSET 0.73152 -45.1104 -5.12064
          CHANNELS 3 Zrotation Xrotation Yrotation
          End Site
          {
            OFFSET -1.1221 -3.69964 12.103
          }
        }
      }
    }
  }
  JOINT lButtock
  {
    OFFSET 8.77824 4.35084 1.2192
    CHANNELS 3 Zrotation Xrotation Yrotation
    JOINT lThigh
    {
      OFFSET 0 -1.70687 -2.19456
      CHANNELS 3 Zrotation Xrotation Yrotation
      JOINT lShin
      {
        OFFSET 0 -36.8199 0.73152
        CHANNELS 3 Zrotation Xrotation Yrotation
        JOINT lFoot
        {
          OFFSET -0.73152 -45.1104 -5.12064
          CHANNELS 3 Zrotation Xrotation Yrotation
          End Site
          {
            OFFSET 1.1221 -3.69964 12.103
          }
        }
      }
    }
  }
}
MOTION
Frames:	4
Frame Time:	0.00833333
30.7247 84.9248 183.405 0.0 0.0 0.0 -0.112401 -0.00252035 -0.00326496 -0.0310778 -0.00419855 -0.00538466 3.01962e-16 1.59028e-15 -2.95071e-17 9.16273e-16 9.54166e-15 -9.16273e-17 -0.0 0.0 0.0 -0.0 0.0 0.0 2.96811e-16 -8.92978e-18 1.49089e-16 4.34473e-15 5.59082e-17 3.97569e-16 5.29761e-14 -1.96797e-14 -3.18055e-15 6.12611e-13 -5.98839e-15 -7.31528e-14 1.44045e-12 -6.00221e-14 -1.55847e-13 2.4701e-12 -1.01778e-13 -2.6001e-13 1.44397e-12 -6.32135e-14 -1.59028e-13 7.73091 5.47488 0.417314 1.43955e-12 -6.05299e-14 -1.49486e-13 2.90554 0.965183 0.102902 1.43675e-12 -6.01324e-14 -1.49486e-13 10.2786 0.731801 0.0259123 1.43145e-12 -5.76476e-14 -1.33583e-13 2.22167 -0.733487 -0.20892 1.3748e-18 -8.54153e-18 -1.49089e-16 2.00784e-15 -5.46658e-16 -9.93923e-16 5.36222e-14 7.35503e-15 0.0 6.08256e-13 -5.45167e-14 -6.04305e-14 1.44049e-12 -1.00886e-13 -1.39944e-13 2.50469e-12 -1.78111e-13 -2.38542e-13 1.43682e-12 -1.02175e-13 -1.33583e-13 -7.73091 5.47488 -0.417314 1.44193e-12 -1.01181e-13 -1.39944e-13 -2.90554 0.965183 -0.102902 1.44283e-12 -1.0148e-13 -1.41535e-13 -10.2786 0.731801 -0.0259123 1.44914e-12 -9.62118e-14 -1.52667e-13 -2.22167 -0.733487 0.20892 -2.03217e-16 0.0 -3.88251e-19 0.354944 -2.94056 -0.0354305 -0.00588104 -0.224753 -0.0517718 -0.439796 3.16568 0.113077 2.03217e-16 0.0 3.88251e-19 -0.527757 -3.42453 0.0465078 0.00449883 0.651853 0.0390521 0.443077 2.77306 -0.105713
31.3343 82.5523 178.764 177.817 -6.9792 -152.479 -1.30098 -7.16839 3.66859 -2.08874 -2.48284 0.507197 7.20016 4.71608 5.59726 -6.39908 1.99667 10.6554 -0.0 0.0 0.0 -0.0 0.0 0.0 7.2587e-14 -2.12768e-13 -1.11601e-13 21.2706 12.9775 -0.744018 -13.7841 -10.8818 14.1687 0.0142323 2.67516 0.374551 5.97637e-10 3.2654e-09 -8.44699e-10 1.02713e-09 5.64168e-09 -1.46289e-09 5.9764e-10 3.26539e-09 -8.44702e-10 7.73091 5.47488 0.417314 5.97635e-10 3.2654e-09 -8.44694e-10 2.90554 0.965183 0.102902 5.97634e-10 3.2654e-09 -8.44694e-10 10.2786 0.731801 0.0259123 5.97629e-10 3.2654e-09 -8.4468e-10 2.22167 -0.733487 -0.20892 7.23473e-14 -2.12768e-13 -1.11902e-13 -16.5689 10.7262 4.81595 8.47687 -5.37018 -11.1824 -0.00198066 -0.987595 0.138723 -6.09092e-11 -3.64226e-10 2.65315e-11 -1.0554e-10 -6.26827e-10 4.2058e-11 -6.09111e-11 -3.64225e-10 2.65384e-11 -7.73091 5.47488 -0.417314 -6.09076e-11 -3.64225e-10 2.65324e-11 -2.90554 0.965183 -0.102902 -6.09068e-11 -3.64226e-10 2.65305e-11 -10.2786 0.731801 -0.0259123 -6.08989e-11 -3.64222e-10 2.65205e-11 -2.22167 -0.733487 0.20892 -2.03217e-16 0.0 -3.88251e-19 0.839626 -11.4493 2.19768 0.0615742 8.3272 0.178102 -1.53867 -3.19434 -6.38987 2.03217e-16 0.0 3.88251e-19 -0.348314 -18.6406 -3.46599 0.028194 7.28734 0.00623401 0.445393 3.70814 4.10267
31.1213 82.405 177.948 177.796 -7.0644 -152.638 -1.49737 -14.6453 7.75362 -4.22142 -5.09625 1.05345 13.8042 9.54659 11.6384 -13.9568 3.88024 21.9575 -0.0 0.0 0.0 -0.0 0.0 0.0 1.52564e-13 -4.52338e-13 -2.39548e-13 44.1393 26.71 -1.63043 -22.4714 -20.1675 30.6926 -0.00898534 5.45781 0.766953 1.26454e-09 6.95095e-09 -1.79898e-09 2.17318e-09 1.20091e-08 -3.11554e-09 1.26455e-09 6.95094e-09 -1.79898e-09 7.73091 5.47488 0.417314 1.26454e-09 6.95095e-09 -1.79897e-09 2.90554 0.965183 0.102902 1.26454e-09 6.95095e-09 -1.79897e-09 10.2786 0.731801 0.0259123 1.26454e-09 6.95095e-09 -1.79896e-09 2.22167 -0.733487 -0.20892 1.52382e-13 -4.52339e-13 -2.39855e-13 -36.1572 21.7909 10.5202 15.1968 -10.3716 -23.3139 0.00112597 -2.02845 0.285067 -1.27357e-10 -7.78329e-10 5.85777e-11 -2.20712e-10 -1.33955e-09 9.31668e-11 -1.27357e-10 -7.78327e-10 5.85848e-11 -7.73091 5.47488 -0.417314 -1.27355e-10 -7.78327e-10 5.85795e-11 -2.90554 0.965183 -0.102902 -1.27354e-10 -7.78328e-10 5.85772e-11 -10.2786 0.731801 -0.0259123 -1.27345e-10 -7.78326e-10 5.85685e-11 -2.22167 -0.733487 0.20892 -2.03217e-16 0.0 -3.88251e-19 2.14177 -20.3991 4.79814 0.0550568 17.3185 0.436439 -4.27451 -9.69028 -13.4459 2.03217e-16 0.0 3.88251e-19 -2.53951 -34.5081 -8.26737 0.0613425 14.2541 -0.0288435 0.296705 4.6702 8.6051
30.9022 82.2523 177.201 177.712 -7.2213 -152.666 -0.773832 -21.1343 11.7249 -6.07008 -7.43773 1.54393 18.8134 13.6018 17.2325 -21.3043 5.16913 32.0926 -0.0 0.0 0.0 -0.0 0.0 0.0 2.17167e-13 -6.38286e-13 -3.351e-13 65.0669 38.9022 -2.79534 -25.6477 -24.4245 46.9695 -0.0631069 8.02411 1.13353 1.79003e-09 9.79632e-09 -2.53378e-09 3.07646e-09 1.69252e-08 -4.38816e-09 1.79003e-09 9.79631e-09 -2.53379e-09 7.73091 5.47488 0.417314 1.79002e-09 9.79631e-09 -2.53378e-09 2.90554 0.965183 0.102902 1.79003e-09 9.79632e-09 -2.53378e-09 10.2786 0.731801 0.0259123 1.79002e-09 9.79632e-09 -2.53377e-09 2.22167 -0.733487 -0.20892 2.17039e-13 -6.38287e-13 -3.35408e-13 -55.8201 31.1911 16.658 19.3961 -13.6508 -34.5034 0.00842105 -2.96271 0.416664 -1.85609e-10 -1.09248e-09 7.98744e-11 -3.21631e-10 -1.88013e-09 1.26651e-10 -1.85607e-10 -1.09247e-09 7.98823e-11 -7.73091 5.47488 -0.417314 -1.85607e-10 -1.09247e-09 7.9877e-11 -2.90554 0.965183 -0.102902 -1.85606e-10 -1.09247e-09 7.98746e-11 -10.2786 0.731801 -0.0259123 -1.85595e-10 -1.09247e-09 7.98669e-11 -2.22167 -0.733487 0.20892 -2.03217e-16 0.0 -3.88251e-19 4.02948 -28.2898 7.42331 -0.0271514 25.4296 0.700043 -8.09861 -15.0483 -20.0822 2.03217e-16 0.0 3.88251e-19 -7.95824 -48.1816 -15.0111 0.0994014 20.5583 -0.0635986 0.04102 5.47361 12.5515
